<svg width="218" height="116" viewBox="0 0 218 116" fill="none" xmlns="http://www.w3.org/2000/svg">
<path d="M17.4545 23.1818L32.8295 48.75H33.375L48.8182 23.1818H63.2386L41.7273 58.0909L63.5795 93H48.9205L33.375 67.6023H32.8295L17.2841 93H2.69318L24.75 58.0909L2.96591 23.1818H17.4545Z" fill="#D1AF00"/>
<mask id="path-2-outside-1_3_7" maskUnits="userSpaceOnUse" x="64" y="22" width="149" height="73" fill="black">
<rect fill="white" x="64" y="22" width="149" height="73"/>
<path d="M95.4886 40.6364V50.1818H65.3864V40.6364H95.4886ZM72.8182 28.0909H85.1591V77.25C85.1591 78.9091 85.4091 80.1818 85.9091 81.0682C86.4318 81.9318 87.1136 82.5227 87.9545 82.8409C88.7955 83.1591 89.7273 83.3182 90.75 83.3182C91.5227 83.3182 92.2273 83.2614 92.8636 83.1477C93.5227 83.0341 94.0227 82.9318 94.3636 82.8409L96.4432 92.4886C95.7841 92.7159 94.8409 92.9659 93.6136 93.2386C92.4091 93.5114 90.9318 93.6705 89.1818 93.7159C86.0909 93.8068 83.3068 93.3409 80.8295 92.3182C78.3523 91.2727 76.3864 89.6591 74.9318 87.4773C73.5 85.2955 72.7955 82.5682 72.8182 79.2955V28.0909ZM103.89 93V40.6364H115.856V49.3636H116.401C117.356 46.3409 118.992 44.0114 121.31 42.375C123.651 40.7159 126.321 39.8864 129.321 39.8864C130.003 39.8864 130.765 39.9205 131.606 39.9886C132.469 40.0341 133.185 40.1136 133.753 40.2273V51.5795C133.231 51.3977 132.401 51.2386 131.265 51.1023C130.151 50.9432 129.071 50.8636 128.026 50.8636C125.776 50.8636 123.753 51.3523 121.958 52.3295C120.185 53.2841 118.787 54.6136 117.765 56.3182C116.742 58.0227 116.231 59.9886 116.231 62.2159V93H103.89ZM157.308 93.9205C153.194 93.9205 149.512 92.8636 146.262 90.75C143.012 88.6364 140.444 85.5682 138.558 81.5455C136.671 77.5227 135.728 72.6364 135.728 66.8864C135.728 61.0682 136.683 56.1591 138.592 52.1591C140.524 48.1364 143.126 45.1023 146.399 43.0568C149.671 40.9886 153.319 39.9545 157.342 39.9545C160.41 39.9545 162.933 40.4773 164.91 41.5227C166.887 42.5455 168.455 43.7841 169.615 45.2386C170.774 46.6705 171.671 48.0227 172.308 49.2955H172.819V23.1818H185.194V93H173.058V84.75H172.308C171.671 86.0227 170.751 87.375 169.546 88.8068C168.342 90.2159 166.751 91.4205 164.774 92.4205C162.796 93.4205 160.308 93.9205 157.308 93.9205ZM160.751 83.7955C163.365 83.7955 165.592 83.0909 167.433 81.6818C169.274 80.25 170.671 78.2614 171.626 75.7159C172.58 73.1705 173.058 70.2045 173.058 66.8182C173.058 63.4318 172.58 60.4886 171.626 57.9886C170.694 55.4886 169.308 53.5455 167.467 52.1591C165.649 50.7727 163.41 50.0795 160.751 50.0795C158.001 50.0795 155.705 50.7955 153.865 52.2273C152.024 53.6591 150.637 55.6364 149.705 58.1591C148.774 60.6818 148.308 63.5682 148.308 66.8182C148.308 70.0909 148.774 73.0114 149.705 75.5795C150.66 78.125 152.058 80.1364 153.899 81.6136C155.762 83.0682 158.046 83.7955 160.751 83.7955ZM204.027 93.75C201.959 93.75 200.186 93.0227 198.709 91.5682C197.231 90.1136 196.504 88.3409 196.527 86.25C196.504 84.2045 197.231 82.4545 198.709 81C200.186 79.5455 201.959 78.8182 204.027 78.8182C206.027 78.8182 207.766 79.5455 209.243 81C210.743 82.4545 211.504 84.2045 211.527 86.25C211.504 87.6364 211.141 88.8977 210.436 90.0341C209.754 91.1705 208.845 92.0795 207.709 92.7614C206.595 93.4205 205.368 93.75 204.027 93.75Z"/>
</mask>
<path d="M95.4886 40.6364V50.1818H65.3864V40.6364H95.4886ZM72.8182 28.0909H85.1591V77.25C85.1591 78.9091 85.4091 80.1818 85.9091 81.0682C86.4318 81.9318 87.1136 82.5227 87.9545 82.8409C88.7955 83.1591 89.7273 83.3182 90.75 83.3182C91.5227 83.3182 92.2273 83.2614 92.8636 83.1477C93.5227 83.0341 94.0227 82.9318 94.3636 82.8409L96.4432 92.4886C95.7841 92.7159 94.8409 92.9659 93.6136 93.2386C92.4091 93.5114 90.9318 93.6705 89.1818 93.7159C86.0909 93.8068 83.3068 93.3409 80.8295 92.3182C78.3523 91.2727 76.3864 89.6591 74.9318 87.4773C73.5 85.2955 72.7955 82.5682 72.8182 79.2955V28.0909ZM103.89 93V40.6364H115.856V49.3636H116.401C117.356 46.3409 118.992 44.0114 121.31 42.375C123.651 40.7159 126.321 39.8864 129.321 39.8864C130.003 39.8864 130.765 39.9205 131.606 39.9886C132.469 40.0341 133.185 40.1136 133.753 40.2273V51.5795C133.231 51.3977 132.401 51.2386 131.265 51.1023C130.151 50.9432 129.071 50.8636 128.026 50.8636C125.776 50.8636 123.753 51.3523 121.958 52.3295C120.185 53.2841 118.787 54.6136 117.765 56.3182C116.742 58.0227 116.231 59.9886 116.231 62.2159V93H103.89ZM157.308 93.9205C153.194 93.9205 149.512 92.8636 146.262 90.75C143.012 88.6364 140.444 85.5682 138.558 81.5455C136.671 77.5227 135.728 72.6364 135.728 66.8864C135.728 61.0682 136.683 56.1591 138.592 52.1591C140.524 48.1364 143.126 45.1023 146.399 43.0568C149.671 40.9886 153.319 39.9545 157.342 39.9545C160.41 39.9545 162.933 40.4773 164.91 41.5227C166.887 42.5455 168.455 43.7841 169.615 45.2386C170.774 46.6705 171.671 48.0227 172.308 49.2955H172.819V23.1818H185.194V93H173.058V84.75H172.308C171.671 86.0227 170.751 87.375 169.546 88.8068C168.342 90.2159 166.751 91.4205 164.774 92.4205C162.796 93.4205 160.308 93.9205 157.308 93.9205ZM160.751 83.7955C163.365 83.7955 165.592 83.0909 167.433 81.6818C169.274 80.25 170.671 78.2614 171.626 75.7159C172.58 73.1705 173.058 70.2045 173.058 66.8182C173.058 63.4318 172.58 60.4886 171.626 57.9886C170.694 55.4886 169.308 53.5455 167.467 52.1591C165.649 50.7727 163.41 50.0795 160.751 50.0795C158.001 50.0795 155.705 50.7955 153.865 52.2273C152.024 53.6591 150.637 55.6364 149.705 58.1591C148.774 60.6818 148.308 63.5682 148.308 66.8182C148.308 70.0909 148.774 73.0114 149.705 75.5795C150.66 78.125 152.058 80.1364 153.899 81.6136C155.762 83.0682 158.046 83.7955 160.751 83.7955ZM204.027 93.75C201.959 93.75 200.186 93.0227 198.709 91.5682C197.231 90.1136 196.504 88.3409 196.527 86.25C196.504 84.2045 197.231 82.4545 198.709 81C200.186 79.5455 201.959 78.8182 204.027 78.8182C206.027 78.8182 207.766 79.5455 209.243 81C210.743 82.4545 211.504 84.2045 211.527 86.25C211.504 87.6364 211.141 88.8977 210.436 90.0341C209.754 91.1705 208.845 92.0795 207.709 92.7614C206.595 93.4205 205.368 93.75 204.027 93.75Z" fill="#F5F5F5"/>
<path d="M95.4886 40.6364H96.4886V39.6364H95.4886V40.6364ZM95.4886 50.1818V51.1818H96.4886V50.1818H95.4886ZM65.3864 50.1818H64.3864V51.1818H65.3864V50.1818ZM65.3864 40.6364V39.6364H64.3864V40.6364H65.3864ZM72.8182 28.0909V27.0909H71.8182V28.0909H72.8182ZM85.1591 28.0909H86.1591V27.0909H85.1591V28.0909ZM85.9091 81.0682L85.0381 81.5595L85.0456 81.5729L85.0536 81.586L85.9091 81.0682ZM87.9545 82.8409L87.6007 83.7762L87.6007 83.7762L87.9545 82.8409ZM92.8636 83.1477L92.6937 82.1622L92.6878 82.1633L92.8636 83.1477ZM94.3636 82.8409L95.3412 82.6302L95.12 81.6043L94.106 81.8747L94.3636 82.8409ZM96.4432 92.4886L96.7692 93.434L97.6076 93.1449L97.4207 92.2779L96.4432 92.4886ZM93.6136 93.2386L93.3967 92.2624L93.3928 92.2633L93.6136 93.2386ZM89.1818 93.7159L89.1559 92.7162L89.1524 92.7163L89.1818 93.7159ZM80.8295 92.3182L80.4407 93.2395L80.4479 93.2425L80.8295 92.3182ZM74.9318 87.4773L74.0957 88.0259L74.0998 88.032L74.9318 87.4773ZM72.8182 79.2955L73.8182 79.3024V79.2955H72.8182ZM94.4886 40.6364V50.1818H96.4886V40.6364H94.4886ZM95.4886 49.1818H65.3864V51.1818H95.4886V49.1818ZM66.3864 50.1818V40.6364H64.3864V50.1818H66.3864ZM65.3864 41.6364H95.4886V39.6364H65.3864V41.6364ZM72.8182 29.0909H85.1591V27.0909H72.8182V29.0909ZM84.1591 28.0909V77.25H86.1591V28.0909H84.1591ZM84.1591 77.25C84.1591 78.9843 84.4161 80.4568 85.0381 81.5595L86.7801 80.5769C86.4021 79.9068 86.1591 78.8339 86.1591 77.25H84.1591ZM85.0536 81.586C85.6771 82.6162 86.525 83.3692 87.6007 83.7762L88.3084 81.9056C87.7023 81.6763 87.1865 81.2475 86.7646 80.5504L85.0536 81.586ZM87.6007 83.7762C88.5691 84.1426 89.6228 84.3182 90.75 84.3182V82.3182C89.8317 82.3182 89.0218 82.1756 88.3084 81.9056L87.6007 83.7762ZM90.75 84.3182C91.5706 84.3182 92.3351 84.2579 93.0394 84.1322L92.6878 82.1633C92.1194 82.2648 91.4748 82.3182 90.75 82.3182V84.3182ZM93.0335 84.1332C93.701 84.0181 94.2363 83.9098 94.6213 83.8071L94.106 81.8747C93.8092 81.9538 93.3444 82.0501 92.6937 82.1623L93.0335 84.1332ZM93.3861 83.0516L95.4656 92.6993L97.4207 92.2779L95.3412 82.6302L93.3861 83.0516ZM96.1172 91.5433C95.5114 91.7521 94.6113 91.9925 93.3967 92.2624L93.8306 94.2148C95.0705 93.9393 96.0568 93.6797 96.7692 93.434L96.1172 91.5433ZM93.3928 92.2633C92.2726 92.517 90.865 92.6719 89.1559 92.7162L89.2078 94.7156C90.9986 94.6691 92.5456 94.5058 93.8345 94.2139L93.3928 92.2633ZM89.1524 92.7163C86.1808 92.8037 83.5397 92.3552 81.2111 91.3939L80.4479 93.2425C83.0739 94.3266 86.0011 94.8099 89.2112 94.7155L89.1524 92.7163ZM81.2184 91.3969C78.9167 90.4255 77.1069 88.9371 75.7639 86.9226L74.0998 88.032C75.6659 90.3811 77.7879 92.1199 80.4407 93.2395L81.2184 91.3969ZM75.7679 86.9286C74.4689 84.9492 73.7965 82.428 73.8182 79.3024L71.8182 79.2885C71.7945 82.7084 72.5311 85.6417 74.0958 88.0259L75.7679 86.9286ZM73.8182 79.2955V28.0909H71.8182V79.2955H73.8182ZM103.89 93H102.89V94H103.89V93ZM103.89 40.6364V39.6364H102.89V40.6364H103.89ZM115.856 40.6364H116.856V39.6364H115.856V40.6364ZM115.856 49.3636H114.856V50.3636H115.856V49.3636ZM116.401 49.3636V50.3636H117.134L117.355 49.6648L116.401 49.3636ZM121.31 42.375L121.887 43.192L121.888 43.1909L121.31 42.375ZM131.606 39.9886L131.525 40.9854L131.539 40.9865L131.553 40.9872L131.606 39.9886ZM133.753 40.2273H134.753V39.4075L133.949 39.2467L133.753 40.2273ZM133.753 51.5795L133.425 52.524L134.753 52.9861V51.5795H133.753ZM131.265 51.1023L131.123 52.0922L131.134 52.0938L131.146 52.0951L131.265 51.1023ZM121.958 52.3295L122.432 53.21L122.436 53.2079L121.958 52.3295ZM116.231 93V94H117.231V93H116.231ZM104.89 93V40.6364H102.89V93H104.89ZM103.89 41.6364H115.856V39.6364H103.89V41.6364ZM114.856 40.6364V49.3636H116.856V40.6364H114.856ZM115.856 50.3636H116.401V48.3636H115.856V50.3636ZM117.355 49.6648C118.251 46.8249 119.768 44.6875 121.887 43.192L120.733 41.558C118.216 43.3352 116.46 45.857 115.447 49.0625L117.355 49.6648ZM121.888 43.1909C124.052 41.6572 126.519 40.8864 129.321 40.8864V38.8864C126.124 38.8864 123.25 39.7746 120.732 41.5591L121.888 43.1909ZM129.321 40.8864C129.971 40.8864 130.705 40.9189 131.525 40.9854L131.686 38.9919C130.825 38.922 130.036 38.8864 129.321 38.8864V40.8864ZM131.553 40.9872C132.389 41.0313 133.053 41.1071 133.557 41.2079L133.949 39.2467C133.317 39.1202 132.549 39.0369 131.658 38.99L131.553 40.9872ZM132.753 40.2273V51.5795H134.753V40.2273H132.753ZM134.082 50.635C133.452 50.4159 132.533 50.2473 131.384 50.1094L131.146 52.0951C132.269 52.23 133.009 52.3795 133.425 52.524L134.082 50.635ZM131.406 50.1123C130.249 49.947 129.122 49.8636 128.026 49.8636V51.8636C129.021 51.8636 130.053 51.9393 131.123 52.0922L131.406 50.1123ZM128.026 49.8636C125.626 49.8636 123.436 50.3863 121.48 51.4512L122.436 53.2079C124.07 52.3183 125.926 51.8636 128.026 51.8636V49.8636ZM121.484 51.4491C119.555 52.4877 118.024 53.9428 116.907 55.8037L118.622 56.8327C119.551 55.2845 120.815 54.0804 122.432 53.21L121.484 51.4491ZM116.907 55.8037C115.78 57.6818 115.231 59.8298 115.231 62.2159H117.231C117.231 60.1475 117.704 58.3637 118.622 56.8327L116.907 55.8037ZM115.231 62.2159V93H117.231V62.2159H115.231ZM116.231 92H103.89V94H116.231V92ZM146.262 90.75L145.717 91.5883L146.262 90.75ZM138.558 81.5455L139.463 81.1209L139.463 81.1209L138.558 81.5455ZM138.592 52.1591L137.69 51.7262L137.689 51.7284L138.592 52.1591ZM146.399 43.0568L146.929 43.9048L146.933 43.9022L146.399 43.0568ZM164.91 41.5227L164.443 42.4068L164.451 42.4109L164.91 41.5227ZM169.615 45.2386L168.832 45.8619L168.837 45.8678L169.615 45.2386ZM172.308 49.2955L171.413 49.7427L171.69 50.2955H172.308V49.2955ZM172.819 49.2955V50.2955H173.819V49.2955H172.819ZM172.819 23.1818V22.1818H171.819V23.1818H172.819ZM185.194 23.1818H186.194V22.1818H185.194V23.1818ZM185.194 93V94H186.194V93H185.194ZM173.058 93H172.058V94H173.058V93ZM173.058 84.75H174.058V83.75H173.058V84.75ZM172.308 84.75V83.75H171.69L171.413 84.3028L172.308 84.75ZM169.546 88.8068L170.307 89.4566L170.312 89.4506L169.546 88.8068ZM164.774 92.4205L165.225 93.3128L165.225 93.3128L164.774 92.4205ZM167.433 81.6818L168.041 82.4759L168.047 82.4712L167.433 81.6818ZM171.626 75.7159L170.69 75.3648L170.69 75.3648L171.626 75.7159ZM171.626 57.9886L170.689 58.3379L170.692 58.3453L171.626 57.9886ZM167.467 52.1591L166.86 52.9543L166.865 52.9579L167.467 52.1591ZM153.865 52.2273L153.251 51.4379L153.251 51.4379L153.865 52.2273ZM149.705 58.1591L148.767 57.8126L148.767 57.8126L149.705 58.1591ZM149.705 75.5795L148.765 75.9206L148.769 75.9307L149.705 75.5795ZM153.899 81.6136L153.273 82.3936L153.283 82.402L153.899 81.6136ZM157.308 92.9205C153.375 92.9205 149.885 91.9132 146.807 89.9117L145.717 91.5883C149.139 93.814 153.013 94.9205 157.308 94.9205V92.9205ZM146.807 89.9117C143.736 87.9139 141.282 85 139.463 81.1209L137.652 81.97C139.606 86.1364 142.289 89.3589 145.717 91.5883L146.807 89.9117ZM139.463 81.1209C137.655 77.2641 136.728 72.5311 136.728 66.8864H134.728C134.728 72.7416 135.688 77.7814 137.652 81.97L139.463 81.1209ZM136.728 66.8864C136.728 61.1726 137.666 56.4201 139.494 52.5898L137.689 51.7284C135.699 55.8981 134.728 60.9638 134.728 66.8864H136.728ZM139.493 52.592C141.356 48.7128 143.84 45.835 146.929 43.9048L145.869 42.2088C142.411 44.3696 139.691 47.56 137.69 51.7262L139.493 52.592ZM146.933 43.9022C150.039 41.9391 153.5 40.9545 157.342 40.9545V38.9545C153.138 38.9545 149.303 40.0382 145.864 42.2115L146.933 43.9022ZM157.342 40.9545C160.305 40.9545 162.653 41.4605 164.443 42.4068L165.377 40.6387C163.213 39.4941 160.515 38.9545 157.342 38.9545V40.9545ZM164.451 42.4109C166.327 43.3815 167.777 44.5368 168.832 45.8618L170.397 44.6154C169.134 43.0313 167.447 41.7094 165.369 40.6345L164.451 42.4109ZM168.837 45.8678C169.963 47.2589 170.817 48.5504 171.413 49.7427L173.202 48.8482C172.526 47.4951 171.584 46.082 170.392 44.6094L168.837 45.8678ZM172.308 50.2955H172.819V48.2955H172.308V50.2955ZM173.819 49.2955V23.1818H171.819V49.2955H173.819ZM172.819 24.1818H185.194V22.1818H172.819V24.1818ZM184.194 23.1818V93H186.194V23.1818H184.194ZM185.194 92H173.058V94H185.194V92ZM174.058 93V84.75H172.058V93H174.058ZM173.058 83.75H172.308V85.75H173.058V83.75ZM171.413 84.3028C170.821 85.4871 169.95 86.7738 168.781 88.1631L170.312 89.4506C171.552 87.9762 172.522 86.5583 173.202 85.1972L171.413 84.3028ZM168.786 88.157C167.683 89.4481 166.204 90.5763 164.322 91.5281L165.225 93.3128C167.298 92.2646 169.001 90.9838 170.306 89.4566L168.786 88.157ZM164.322 91.5281C162.526 92.4368 160.204 92.9205 157.308 92.9205V94.9205C160.412 94.9205 163.067 94.4041 165.225 93.3128L164.322 91.5281ZM160.751 84.7955C163.555 84.7955 166.003 84.0354 168.041 82.4759L166.825 80.8877C165.18 82.1464 163.174 82.7955 160.751 82.7955V84.7955ZM168.047 82.4712C170.056 80.9082 171.554 78.7564 172.562 76.067L170.69 75.3648C169.789 77.7663 168.491 79.5918 166.819 80.8925L168.047 82.4712ZM172.562 76.067C173.568 73.3855 174.058 70.2961 174.058 66.8182H172.058C172.058 70.113 171.593 72.9554 170.69 75.3648L172.562 76.067ZM174.058 66.8182C174.058 63.3409 173.568 60.2716 172.56 57.6319L170.692 58.3453C171.593 60.7057 172.058 63.5227 172.058 66.8182H174.058ZM172.563 57.6394C171.575 54.9894 170.085 52.8786 168.068 51.3603L166.865 52.9579C168.531 54.2123 169.813 55.9879 170.689 58.3379L172.563 57.6394ZM168.073 51.3639C166.053 49.8238 163.592 49.0795 160.751 49.0795V51.0795C163.228 51.0795 165.244 51.7217 166.86 52.9543L168.073 51.3639ZM160.751 49.0795C157.82 49.0795 155.297 49.8462 153.251 51.4379L154.478 53.0166C156.114 51.7447 158.182 51.0795 160.751 51.0795V49.0795ZM153.251 51.4379C151.241 53.0009 149.754 55.1422 148.767 57.8126L150.644 58.5056C151.521 56.1305 152.806 54.3173 154.478 53.0166L153.251 51.4379ZM148.767 57.8126C147.787 60.4667 147.308 63.4739 147.308 66.8182H149.308C149.308 63.6625 149.76 60.897 150.644 58.5056L148.767 57.8126ZM147.308 66.8182C147.308 70.1848 147.787 73.2239 148.765 75.9206L150.645 75.2385C149.76 72.7989 149.308 69.997 149.308 66.8182H147.308ZM148.769 75.9307C149.777 78.6184 151.272 80.7877 153.273 82.3936L154.525 80.8337C152.844 79.485 151.543 77.6316 150.642 75.2284L148.769 75.9307ZM153.283 82.402C155.348 84.013 157.857 84.7955 160.751 84.7955V82.7955C158.236 82.7955 156.177 82.1233 154.514 80.8253L153.283 82.402ZM198.709 91.5682L198.007 92.2807L198.007 92.2807L198.709 91.5682ZM196.527 86.25L197.527 86.2609L197.527 86.2499L197.527 86.2389L196.527 86.25ZM198.709 81L199.41 81.7126L199.41 81.7126L198.709 81ZM209.243 81L208.541 81.7126L208.547 81.7179L209.243 81ZM211.527 86.25L212.527 86.2664L212.527 86.2526L212.527 86.2389L211.527 86.25ZM210.436 90.0341L209.586 89.5072L209.582 89.5133L209.579 89.5196L210.436 90.0341ZM207.709 92.7614L208.218 93.622L208.223 93.6189L207.709 92.7614ZM204.027 92.75C202.222 92.75 200.701 92.1265 199.41 90.8556L198.007 92.2807C199.671 93.919 201.696 94.75 204.027 94.75V92.75ZM199.41 90.8556C198.129 89.5935 197.507 88.0828 197.527 86.2609L195.527 86.2391C195.501 88.5991 196.334 90.6337 198.007 92.2807L199.41 90.8556ZM197.527 86.2389C197.507 84.4693 198.124 82.9794 199.41 81.7126L198.007 80.2874C196.339 81.9297 195.501 83.9398 195.527 86.2611L197.527 86.2389ZM199.41 81.7126C200.701 80.4417 202.222 79.8182 204.027 79.8182V77.8182C201.696 77.8182 199.671 78.6492 198.007 80.2874L199.41 81.7126ZM204.027 79.8182C205.754 79.8182 207.243 80.4347 208.541 81.7126L209.944 80.2874C208.288 78.6562 206.3 77.8182 204.027 77.8182V79.8182ZM208.547 81.7179C209.86 82.9913 210.507 84.4887 210.527 86.2611L212.527 86.2389C212.501 83.9204 211.626 81.9178 209.939 80.2821L208.547 81.7179ZM210.527 86.2336C210.507 87.4464 210.192 88.5301 209.586 89.5072L211.286 90.561C212.089 89.2653 212.501 87.8264 212.527 86.2664L210.527 86.2336ZM209.579 89.5196C208.981 90.5152 208.19 91.3065 207.194 91.9039L208.223 93.6189C209.5 92.8526 210.527 91.8257 211.294 90.5486L209.579 89.5196ZM207.199 91.9008C206.246 92.4652 205.195 92.75 204.027 92.75V94.75C205.54 94.75 206.944 94.3757 208.218 93.6219L207.199 91.9008Z" fill="#F5F5F5" mask="url(#path-2-outside-1_3_7)"/>
</svg>
